<svg width="33" height="34" viewBox="0 0 33 34" fill="none" xmlns="http://www.w3.org/2000/svg">
<g clip-path="url(#clip0_765_4262)">
<path d="M1.18682 16.8091C1.18607 19.518 1.89389 22.1631 3.2398 24.4945L1.05811 32.4603L9.21004 30.3228C11.4648 31.5502 13.991 32.1934 16.5582 32.1936H16.5649C25.0396 32.1936 31.9383 25.2974 31.9419 16.8212C31.9435 12.7139 30.3454 8.85162 27.4419 5.94586C24.5389 3.04034 20.678 1.43937 16.5643 1.4375C8.08857 1.4375 1.19045 8.33325 1.18695 16.8091" fill="url(#paint0_linear_765_4262)"/>
<path d="M0.637805 16.8058C0.636931 19.6122 1.37012 22.3519 2.76402 24.7667L0.504089 33.018L8.94832 30.804C11.275 32.0725 13.8946 32.7413 16.5601 32.7423H16.567C25.3458 32.7423 32.4922 25.5982 32.496 16.8185C32.4975 12.5636 30.8419 8.56249 27.8347 5.55263C24.827 2.54314 20.8281 0.884562 16.567 0.882812C7.78674 0.882812 0.641305 8.026 0.637805 16.8058ZM5.66665 24.3509L5.35136 23.8504C4.02595 21.7429 3.32637 19.3075 3.32737 16.8068C3.33012 9.50925 9.26911 3.57213 16.572 3.57213C20.1086 3.57363 23.4323 4.95228 25.9321 7.45364C28.4319 9.95526 29.8074 13.2807 29.8065 16.8175C29.8033 24.115 23.8642 30.0529 16.567 30.0529H16.5618C14.1857 30.0517 11.8555 29.4136 9.82322 28.2077L9.3396 27.9209L4.32862 29.2347L5.66665 24.3509Z" fill="url(#paint1_linear_765_4262)"/>
<path d="M12.5856 10.1501C12.2874 9.48738 11.9736 9.47401 11.6901 9.46239C11.4579 9.45239 11.1925 9.45314 10.9273 9.45314C10.6618 9.45314 10.2306 9.55299 9.86605 9.95101C9.50114 10.3494 8.4729 11.3122 8.4729 13.2703C8.4729 15.2284 9.89916 17.1209 10.098 17.3867C10.2971 17.6521 12.8514 21.799 16.8969 23.3943C20.259 24.7201 20.9432 24.4565 21.6729 24.39C22.4027 24.3237 24.0278 23.4275 24.3594 22.4981C24.6912 21.5688 24.6912 20.7723 24.5917 20.6058C24.4922 20.44 24.2268 20.3404 23.8288 20.1414C23.4307 19.9425 21.4738 18.9795 21.1091 18.8466C20.7442 18.7139 20.4789 18.6477 20.2134 19.0462C19.948 19.4441 19.1858 20.3404 18.9535 20.6058C18.7214 20.8719 18.4891 20.905 18.0912 20.7059C17.6929 20.5062 16.4111 20.0864 14.8904 18.7307C13.7072 17.6757 12.9084 16.3729 12.6762 15.9744C12.444 15.5765 12.6513 15.3608 12.8509 15.1624C13.0297 14.9841 13.2491 14.6977 13.4483 14.4654C13.6467 14.2329 13.7129 14.0671 13.8457 13.8017C13.9785 13.536 13.912 13.3035 13.8127 13.1045C13.7129 12.9054 12.9395 10.937 12.5856 10.1501Z" fill="white"/>
</g>
<defs>
<linearGradient id="paint0_linear_765_4262" x1="1545.25" y1="3103.71" x2="1545.25" y2="1.4375" gradientUnits="userSpaceOnUse">
<stop stop-color="#1FAF38"/>
<stop offset="1" stop-color="#60D669"/>
</linearGradient>
<linearGradient id="paint1_linear_765_4262" x1="1600.1" y1="3214.4" x2="1600.1" y2="0.882812" gradientUnits="userSpaceOnUse">
<stop stop-color="#F9F9F9"/>
<stop offset="1" stop-color="white"/>
</linearGradient>
<clipPath id="clip0_765_4262">
<rect width="32" height="32.2418" fill="white" transform="translate(0.5 0.882812)"/>
</clipPath>
</defs>
</svg>
