<svg width="51" height="50" viewBox="0 0 51 50" fill="none" xmlns="http://www.w3.org/2000/svg">
<path opacity="0.929" fill-rule="evenodd" clip-rule="evenodd" d="M22.6191 3.4669C22.8815 3.45087 23.142 3.46715 23.4004 3.51573C30.2157 6.77689 37.019 10.0647 43.8105 13.379C43.8919 13.4604 43.9733 13.5418 44.0547 13.6232C44.071 16.9765 44.1198 20.3294 44.2012 23.6817C45.7024 24.2744 47.1999 24.8766 48.6934 25.4884C49.4271 29.0434 49.0853 32.5102 47.668 35.8888C45.9849 39.4107 43.2668 41.7218 39.5137 42.8224C37.9677 42.3621 36.5354 41.6785 35.2168 40.7716C31.1698 42.7871 27.0846 44.7076 22.9609 46.5333C22.345 46.3315 21.7428 46.0873 21.1543 45.8009C15.079 42.8445 8.99172 39.9149 2.89258 37.0118C2.50985 36.8614 2.16805 36.6498 1.86719 36.3771C1.80208 28.7924 1.80208 21.2078 1.86719 13.6232C2.01786 13.4398 2.1969 13.2933 2.4043 13.1837C9.16527 9.971 15.9035 6.73203 22.6191 3.4669ZM22.9121 4.93174C29.1634 7.93282 35.4134 10.9439 41.6621 13.9649C35.4477 16.9744 29.2303 19.9856 23.0098 22.9981C21.4798 22.2657 19.9499 21.5333 18.4199 20.8009C21.6927 19.1808 24.9805 17.5857 28.2832 16.0157C28.804 15.56 28.804 15.1043 28.2832 14.6485C25.4837 13.3139 22.6843 11.9793 19.8848 10.6446C19.6895 10.5795 19.4941 10.5795 19.2988 10.6446C15.6572 12.4281 12.0114 14.2023 8.36133 15.9669C6.98217 15.3262 5.61498 14.6588 4.25977 13.9649C10.5084 10.9989 16.7259 7.98782 22.9121 4.93174ZM19.4941 12.1583C21.7617 13.1618 24.0078 14.2197 26.2324 15.3321C23.0543 16.905 19.8642 18.4512 16.6621 19.9708C14.4812 18.9129 12.3001 17.8549 10.1191 16.797C13.2381 15.2213 16.3631 13.6751 19.4941 12.1583ZM3.28321 15.1857C4.71292 15.8679 6.14522 16.5515 7.58008 17.2364C7.64574 21.1138 7.71084 24.9875 7.77539 28.8575C7.95015 28.992 8.14546 29.0897 8.36133 29.1505C9.5032 28.6104 10.61 28.0082 11.6816 27.3439C11.7793 27.2787 11.877 27.2787 11.9746 27.3439C13.3938 29.1896 14.7772 31.0612 16.125 32.9591C16.7055 33.3027 17.1286 33.1726 17.3945 32.5685C17.4108 29.0524 17.4597 25.5367 17.541 22.0216C19.0794 22.7515 20.6094 23.5002 22.1309 24.2677C22.2448 31.0708 22.261 37.8742 22.1797 44.6778C15.9328 41.6113 9.66654 38.584 3.38086 35.5958C3.28321 28.7928 3.25066 21.9894 3.28321 15.1857ZM42.541 15.1857C42.6547 17.8058 42.6709 20.4425 42.5898 23.0958C41.7614 22.7544 40.9314 22.4126 40.0996 22.0704C39.8158 21.9417 39.5229 21.9091 39.2207 21.9728C36.2476 23.1176 33.2853 24.2895 30.334 25.4884C30.2167 25.5766 30.1353 25.6904 30.0898 25.8302C29.8358 28.0914 29.9172 30.3375 30.334 32.5685C29.0599 33.0021 27.8392 33.5554 26.6719 34.2286C26.412 35.0755 26.7213 35.4498 27.5996 35.3517C28.6031 34.8581 29.596 34.3535 30.5781 33.838C30.844 34.7013 31.1858 35.5314 31.6035 36.3282C31.3819 36.2917 31.1541 36.2917 30.9199 36.3282C29.5407 36.969 28.1735 37.6363 26.8184 38.3302C26.4111 38.7695 26.4438 39.1765 26.916 39.5509C27.1439 39.616 27.3718 39.616 27.5996 39.5509C28.9017 38.9324 30.2038 38.3139 31.5059 37.6954C31.7314 37.5356 31.8779 37.3239 31.9453 37.0607C32.5178 38.0097 33.1852 38.8886 33.9473 39.6974C30.5509 41.3711 27.1492 43.0313 23.7422 44.6778C23.6608 37.8742 23.6771 31.0708 23.791 24.2677C30.0499 21.2357 36.2999 18.2084 42.541 15.1857ZM9.04492 17.92C11.321 19.0255 13.5996 20.1322 15.8809 21.2403C15.9948 24.2021 16.011 27.1643 15.9297 30.1271C14.8829 28.7873 13.8738 27.4201 12.9023 26.0255C12.6535 25.6485 12.3117 25.5021 11.877 25.586C10.9498 26.0658 10.0383 26.5704 9.14258 27.0997C9.04494 24.0405 9.01239 20.9806 9.04492 17.92ZM39.3184 23.4864C39.4843 23.4708 39.6471 23.487 39.8066 23.5353C42.3674 24.5714 44.939 25.5806 47.5215 26.5626C48.0366 30.2264 47.3693 33.6606 45.5195 36.8653C44.0298 39.0214 42.0278 40.4862 39.5137 41.2599C35.4038 39.8354 32.8484 37.0033 31.8477 32.7638C31.3812 30.7007 31.2998 28.6336 31.6035 26.5626C34.1838 25.5319 36.7554 24.5065 39.3184 23.4864Z" fill="#3D3D3D"/>
<path opacity="0.91" fill-rule="evenodd" clip-rule="evenodd" d="M43.9082 28.0731C44.7705 27.9424 45.1123 28.3005 44.9336 29.1473C43.3385 31.2632 41.7434 33.379 40.1484 35.4949C39.8112 35.8142 39.4369 35.863 39.0254 35.6414C38.1953 34.5509 37.3652 33.4605 36.5351 32.3699C36.1804 31.3334 36.5222 30.9591 37.5605 31.2469C38.196 32.0934 38.8469 32.9235 39.5136 33.7371C40.9778 31.8496 42.4426 29.9616 43.9082 28.0731Z" fill="#3D3D3D"/>
</svg>
