<svg width="50" height="50" viewBox="0 0 50 50" fill="none" xmlns="http://www.w3.org/2000/svg">
<path opacity="0.929" fill-rule="evenodd" clip-rule="evenodd" d="M29.9316 6.78906C30.5437 6.80117 30.8366 7.11041 30.8105 7.7168C30.6366 9.45657 30.5227 11.1981 30.4688 12.9414C31.3227 13.2369 32.1854 13.5136 33.0566 13.7715C33.5838 14.1187 33.6651 14.5581 33.3008 15.0898C31.4128 17.8242 29.5247 20.5586 27.6367 23.293C26.957 23.6802 26.4851 23.5174 26.2207 22.8047C26.6359 20.932 27.0592 19.0603 27.4902 17.1895C26.6205 16.7251 25.709 16.3345 24.7559 16.0176C24.5348 15.8438 24.4046 15.6159 24.3652 15.334C24.4669 15.0042 24.6134 14.6949 24.8047 14.4062C26.3265 12.0464 27.8239 9.67012 29.2969 7.27734C29.4731 7.05022 29.6848 6.88747 29.9316 6.78906ZM28.9551 10.793C29.016 10.8337 29.0485 10.8988 29.0527 10.9883C28.9604 11.7175 28.8952 12.4499 28.8574 13.1855C28.8504 13.5068 28.8992 13.816 29.0039 14.1133C29.8288 14.3971 30.6589 14.6737 31.4941 14.9434C30.5784 16.3027 29.6507 17.6537 28.7109 18.9961C28.8309 18.2006 28.9773 17.4031 29.1504 16.6035C29.1463 16.4114 29.0975 16.2323 29.0039 16.0664C28.143 15.6439 27.2804 15.2371 26.416 14.8457C27.2441 13.4811 28.0905 12.1302 28.9551 10.793Z" fill="#3D3D3D"/>
<path opacity="0.938" fill-rule="evenodd" clip-rule="evenodd" d="M19.873 14.303C20.5898 14.2867 21.306 14.303 22.0214 14.3518C22.6589 14.6886 22.7565 15.1443 22.3144 15.719C21.5406 15.8396 20.7594 15.9047 19.9706 15.9143C19.8566 15.9631 19.7753 16.0445 19.7265 16.1584C19.6613 19.023 19.6613 21.8876 19.7265 24.7522C19.7753 24.8661 19.8566 24.9475 19.9706 24.9963C25.9642 25.0773 31.9537 25.0611 37.9394 24.9475C38.0069 24.8962 38.0558 24.8311 38.0858 24.7522C38.151 21.8876 38.151 19.023 38.0858 16.1584C38.037 16.0445 37.9557 15.9631 37.8417 15.9143C36.9855 15.9086 36.1391 15.8435 35.3026 15.719C35.0244 15.4691 34.943 15.1598 35.0585 14.7912C35.1398 14.5796 35.2863 14.4331 35.498 14.3518C36.3117 14.2866 37.1256 14.2866 37.9394 14.3518C38.856 14.5197 39.4256 15.0568 39.6483 15.9631C39.6972 17.1996 39.7135 18.4366 39.6972 19.674C41.9476 19.6304 44.1937 19.6792 46.4355 19.8205C47.9691 20.2475 48.8969 21.2403 49.2187 22.799C49.2838 28.105 49.2838 33.4111 49.2187 38.717C48.8223 40.2528 47.862 41.2455 46.3378 41.6955C44.3847 41.728 42.4315 41.7607 40.4784 41.7932C39.0659 43.2393 37.5034 43.4346 35.7909 42.3791C35.6102 42.2147 35.4474 42.0357 35.3026 41.842C28.6295 41.7118 21.9563 41.7118 15.2831 41.842C14.6099 42.6425 13.7472 43.0656 12.6952 43.1115C11.6252 43.073 10.7625 42.6335 10.1073 41.7932C7.95889 41.7607 5.81045 41.728 3.66202 41.6955C1.95449 41.2574 0.961644 40.1669 0.683501 38.424C0.202221 32.1023 1.69961 26.308 5.17569 21.0412C5.79801 20.3538 6.56299 19.9144 7.47061 19.7229C10.0746 19.674 12.6787 19.6577 15.2831 19.674C15.2669 19.0547 15.2831 18.4363 15.3319 17.8186C15.4133 17.7372 15.4947 17.6558 15.5761 17.5744C16.4118 17.4337 17.2581 17.3849 18.1151 17.428C17.8016 15.8384 18.3875 14.7967 19.873 14.303ZM16.748 18.9905C17.2037 18.9905 17.6594 18.9905 18.1151 18.9905C18.1151 19.9995 18.1151 21.0087 18.1151 22.0178C17.6594 22.0178 17.2037 22.0178 16.748 22.0178C16.748 21.0087 16.748 19.9995 16.748 18.9905ZM8.05655 21.1389C9.52139 21.1389 10.9862 21.1389 12.4511 21.1389C12.4511 21.9527 12.4511 22.7665 12.4511 23.5803C10.1071 23.5966 7.76335 23.5803 5.41983 23.5315C5.83683 22.828 6.32511 22.177 6.88467 21.5783C7.2687 21.3803 7.65932 21.2338 8.05655 21.1389ZM13.9159 21.1389C14.3717 21.1389 14.8273 21.1389 15.2831 21.1389C15.2669 21.8233 15.2831 22.5069 15.3319 23.1897C15.4133 23.271 15.4947 23.3525 15.5761 23.4338C16.4118 23.5745 17.2581 23.6234 18.1151 23.5803C17.8928 24.6546 18.1857 25.5498 18.994 26.2658C19.2469 26.3827 19.5073 26.4804 19.7753 26.5588C20.6861 26.6076 21.5977 26.6238 22.5097 26.6076C22.5097 28.105 22.5097 29.6025 22.5097 31.0998C19.6451 31.0998 16.7805 31.0998 13.9159 31.0998C13.9159 27.7795 13.9159 24.4592 13.9159 21.1389ZM39.6972 21.2365C40.0878 21.2365 40.4784 21.2365 40.869 21.2365C40.869 24.5243 40.869 27.812 40.869 31.0998C38.33 31.0998 35.7909 31.0998 33.2519 31.0998C33.2519 29.6025 33.2519 28.105 33.2519 26.6076C34.8147 26.6239 36.3772 26.6076 37.9394 26.5588C38.856 26.3909 39.4256 25.8538 39.6483 24.9475C39.6972 23.711 39.7135 22.4739 39.6972 21.2365ZM42.4315 21.2365C43.6364 21.2202 44.8408 21.2365 46.0448 21.2854C47.0448 21.6344 47.6145 22.3342 47.7538 23.385C47.8026 25.9564 47.8189 28.528 47.8026 31.0998C46.0123 31.0998 44.2219 31.0998 42.4315 31.0998C42.4315 27.812 42.4315 24.5243 42.4315 21.2365ZM4.63858 25.0451C7.24275 25.0451 9.84688 25.0451 12.4511 25.0451C12.4511 27.0634 12.4511 29.0816 12.4511 31.0998C11.173 31.1297 10.0336 31.5366 9.03311 32.3205C8.40646 33.1427 7.65776 33.8263 6.78702 34.3713C6.46734 34.4887 6.14181 34.5864 5.81045 34.6643C4.60647 34.7131 3.40204 34.7294 2.19717 34.7131C2.3845 31.3271 3.1983 28.1044 4.63858 25.0451ZM24.0722 26.6076C26.6112 26.6076 29.1503 26.6076 31.6894 26.6076C31.6894 28.105 31.6894 29.6025 31.6894 31.0998C29.1503 31.0998 26.6112 31.0998 24.0722 31.0998C24.0722 29.6025 24.0722 28.105 24.0722 26.6076ZM11.7675 32.6623C23.7792 32.6623 35.7909 32.6623 47.8026 32.6623C47.8189 34.453 47.8026 36.2434 47.7538 38.0334C47.6293 39.2646 46.9619 39.997 45.7519 40.2307C44.1894 40.2958 42.6269 40.2958 41.0644 40.2307C41.2172 38.5845 40.5336 37.4126 39.0136 36.7151C37.0157 36.1925 35.5997 36.8598 34.7655 38.717C34.6414 39.2301 34.5926 39.7509 34.619 40.2795C28.4016 40.2795 22.1842 40.2795 15.9667 40.2795C16.0751 38.7215 15.4565 37.5659 14.1112 36.8127C11.9935 36.1387 10.4798 36.806 9.57022 38.8147C9.45693 39.2965 9.4081 39.7848 9.42374 40.2795C7.66562 40.2958 5.90781 40.2795 4.1503 40.2307C3.20728 40.0038 2.57251 39.4341 2.246 38.5217C2.19498 37.7727 2.14615 37.0239 2.09952 36.2756C3.27184 36.2919 4.44372 36.2756 5.61514 36.2268C6.79192 36.1264 7.83359 35.7031 8.74014 34.9572C9.19263 34.407 9.68091 33.8862 10.205 33.3947C10.6974 33.0669 11.2183 32.8228 11.7675 32.6623ZM12.5487 38.0334C13.7022 38.0964 14.3206 38.6987 14.4042 39.8401C14.0752 41.4368 13.1638 41.8926 11.6698 41.2072C10.8584 40.4149 10.7771 39.5522 11.4257 38.6194C11.755 38.3209 12.1294 38.1256 12.5487 38.0334ZM37.6464 38.0334C38.8243 38.0397 39.4754 38.6256 39.5995 39.7912C39.5019 40.8655 38.9159 41.4514 37.8417 41.549C36.8594 41.3969 36.2734 40.8273 36.0839 39.8401C36.2113 38.8834 36.7321 38.2813 37.6464 38.0334Z" fill="#3D3D3D"/>
<path opacity="0.897" fill-rule="evenodd" clip-rule="evenodd" d="M23.8771 34.0296C25.2446 34.0132 26.6118 34.0296 27.9786 34.0784C28.598 34.2916 28.777 34.6985 28.5157 35.2991C28.4275 35.4164 28.3137 35.4978 28.1739 35.5432C26.6766 35.6084 25.1791 35.6084 23.6817 35.5432C22.9962 34.9476 23.0612 34.443 23.8771 34.0296Z" fill="#3D3D3D"/>
</svg>
